<svg width="123.001" height="77.001" viewBox="0 0 123.001 77.001" xmlns="http://www.w3.org/2000/svg"><g id="svgGroup" stroke-linecap="round" fill-rule="evenodd" font-size="9pt" stroke="#00000000" stroke-width="0.25mm" fill="#ffc0cb" style="stroke:#00000000;stroke-width:0.25mm;fill:#ffc0cb"><path d="M 64 63.2 L 64 61 L 77.1 61 L 77.1 62.7 A 1.156 1.156 0 0 0 77.439 63.539 A 1.378 1.378 0 0 0 77.45 63.55 A 1.156 1.156 0 0 0 78.284 63.9 A 1.423 1.423 0 0 0 78.3 63.9 L 108.6 63.9 A 1.156 1.156 0 0 0 109.439 63.561 A 1.378 1.378 0 0 0 109.45 63.55 A 1.156 1.156 0 0 0 109.8 62.716 A 1.423 1.423 0 0 0 109.8 62.7 L 109.8 55.8 A 1.156 1.156 0 0 0 109.461 54.961 A 1.378 1.378 0 0 0 109.45 54.95 A 1.156 1.156 0 0 0 108.616 54.6 A 1.423 1.423 0 0 0 108.6 54.6 L 77.8 54.6 Q 74 54.6 70.9 52.7 Q 67.8 50.8 65.9 47.7 Q 64 44.6 64 40.8 L 64 32.8 Q 64 29 65.9 25.9 Q 67.8 22.8 70.9 20.9 Q 74 19 77.8 19 L 109.1 19 A 13.705 13.705 0 0 1 113.769 19.78 A 12.613 12.613 0 0 1 116.1 20.9 Q 119.2 22.8 121.1 25.9 Q 123 29 123 32.8 L 123 35 L 109.8 35 L 109.8 33.3 A 1.156 1.156 0 0 0 109.461 32.461 A 1.378 1.378 0 0 0 109.45 32.45 A 1.156 1.156 0 0 0 108.616 32.1 A 1.423 1.423 0 0 0 108.6 32.1 L 78.3 32.1 A 1.156 1.156 0 0 0 77.461 32.439 A 1.378 1.378 0 0 0 77.45 32.45 A 1.156 1.156 0 0 0 77.1 33.284 A 1.423 1.423 0 0 0 77.1 33.3 L 77.1 40.2 A 1.156 1.156 0 0 0 77.439 41.039 A 1.378 1.378 0 0 0 77.45 41.05 A 1.156 1.156 0 0 0 78.284 41.4 A 1.423 1.423 0 0 0 78.3 41.4 L 109.1 41.4 A 13.705 13.705 0 0 1 113.769 42.18 A 12.613 12.613 0 0 1 116.1 43.3 Q 119.2 45.2 121.1 48.3 Q 123 51.4 123 55.2 L 123 63.2 Q 123 67 121.1 70.1 Q 119.2 73.2 116.1 75.1 A 12.985 12.985 0 0 1 109.704 76.988 A 15.638 15.638 0 0 1 109.1 77 L 77.8 77 Q 74 77 70.9 75.1 Q 67.8 73.2 65.9 70.1 Q 64 67 64 63.2 Z M 13.1 77 L 0 77 L 0 0 L 13.1 0 L 13.1 41.4 L 23.4 41.4 L 44.1 19 L 58.1 19 L 58.1 22.6 L 35 48 L 58 73.4 L 58 77 L 44.1 77 L 23.4 54.6 L 13.1 54.6 L 13.1 77 Z"/></g></svg>